# Blender v2.69 (sub 0) OBJ File: ''
# www.blender.org
o DXFmesh
v 0.059638 0.043400 -0.275520
v 0.079797 -0.057960 -0.368200
v 0.258990 0.084000 -0.272440
v 0.245270 0.000000 -0.424760
v 0.267949 -0.087080 -0.281960
v 0.174713 -0.126840 -0.374360
v 0.177233 -0.128800 -0.219240
v 0.142234 -0.046200 -0.086240
v 0.091556 0.029680 -0.055440
v 0.046758 0.143920 -0.262360
v 0.000000 0.152320 -0.152320
v -0.026599 0.082320 -0.150080
v 0.143914 0.104440 -0.308560
v 0.192632 0.140000 -0.238280
v 0.072797 0.100240 -0.123760
v 0.040598 0.055720 -0.039760
v -0.074757 0.230440 -0.140000
v -0.030239 0.092960 -0.365120
v -0.082597 0.059920 -0.176960
v -0.032759 0.000000 -0.122640
v -0.224271 0.072800 -0.235760
v -0.044518 0.137480 -0.144760
v -0.110036 0.151760 -0.187600
v -0.242470 0.000000 -0.140000
v 0.000000 -0.061600 -0.061600
v 0.057398 -0.176680 -0.321720
v 0.000000 -0.083440 -0.048160
v 0.102756 -0.141680 -0.175000
v 0.091836 -0.126560 -0.090160
v 0.195992 -0.142520 -0.140000
v 0.000000 0.000000 -0.280000
v -0.016239 -0.050680 -0.199080
v -0.135795 -0.098560 -0.290920
v -0.059918 -0.019320 -0.063000
v -0.102756 -0.141680 -0.175000
v -0.041998 -0.129640 -0.236040
v -0.116475 0.000000 -0.201880
v -0.157634 0.000000 -0.157640
v -0.206912 -0.067200 -0.125440
v -0.098556 -0.135520 -0.096600
v -0.101636 -0.073640 -0.072520
v -0.058238 -0.179480 -0.188720
v -0.074757 -0.230440 -0.140000
v 0.159034 0.025200 0.043120
v 0.240790 -0.038080 -0.065240
v 0.150634 0.000000 0.000000
v 0.128515 0.065240 -0.038640
v 0.249470 0.039480 -0.067480
v 0.086517 -0.028000 0.000000
v 0.232671 0.000000 -0.134400
v 0.058798 0.372680 0.101080
v 0.203832 0.400400 0.120400
v 0.174433 0.537320 0.000000
v 0.000000 0.328720 0.000000
v 0.039198 0.247520 -0.067200
v -0.039758 0.252280 -0.068320
v 0.000000 0.327040 -0.188720
v 0.027999 0.086240 -0.052360
v 0.076717 0.150920 -0.045360
v 0.372105 0.372120 -0.140840
v -0.195992 0.142520 0.139720
v -0.405424 0.206640 0.121800
v -0.181713 0.132160 0.000000
v -0.033039 0.045640 0.000000
v -0.232391 0.168840 -0.165760
v -0.464502 0.073360 -0.126000
v -0.254510 0.082600 -0.154280
v -0.346906 0.176680 -0.104160
v -0.043118 0.043120 -0.016240
v -0.200192 0.275800 -0.196840
v 0.079517 -0.155960 0.046760
v 0.289228 -0.398160 0.000000
v 0.088196 -0.271320 0.000000
v 0.229311 -0.450240 -0.135240
v 0.076997 -0.237160 -0.143920
v -0.010080 0.063840 0.017360
v -0.008960 -0.057400 -0.015400
v -0.157074 -0.114240 0.000000
v -0.202712 -0.202720 0.076720
v -0.367065 -0.119280 0.000000
v -0.348586 -0.177520 -0.104720
v -0.087077 -0.087080 -0.032760
v -0.166873 -0.327600 -0.098560
v -0.201312 -0.031640 -0.054600
v 0.195992 0.142520 -0.140000
v 0.297908 0.216440 0.000000
v 0.135515 0.069160 0.040600
v 0.233231 0.321160 0.000000
v 0.225111 0.073080 0.000000
v 0.025199 0.025200 0.009520
v 0.159314 0.219240 0.156520
v -0.155954 0.306040 -0.091840
v -0.062158 0.191520 0.000000
v -0.051518 0.326200 0.088480
v 0.074757 0.230440 0.139720
v -0.124315 0.382760 0.232400
v -0.115355 0.115360 0.043680
v -0.121515 0.238560 0.071680
v -0.554378 0.000000 0.000000
v -0.186193 -0.029400 0.050400
v -0.382745 0.124320 0.000000
v -0.301548 0.047600 0.081760
v -0.316947 -0.102760 0.192360
v -0.237431 -0.120960 0.071400
v 0.419423 -0.419440 -0.158760
v 0.098836 -0.050400 -0.029680
v 0.285869 -0.207760 0.204120
v 0.123755 -0.063000 0.036960
v 0.371825 -0.270200 0.000000
v 0.074757 -0.230440 0.139720
v 0.308548 -0.308560 0.116760
v 0.155394 -0.214200 0.152880
v 0.178633 -0.028280 0.048440
v -0.048718 -0.150080 0.000000
v 0.000000 -0.054600 0.000000
v -0.012879 -0.025480 0.007560
v -0.121235 -0.167160 0.000000
v -0.195992 -0.142520 0.139720
v -0.031359 -0.199080 0.054040
v -0.062997 -0.194040 0.117600
v 0.000000 -0.152600 0.088200
v 0.027159 -0.172760 0.046760
v 0.204952 0.148960 0.438760
v 0.091836 0.126280 0.156240
v 0.109476 0.035560 0.115080
v 0.076717 0.055720 0.054880
v 0.232671 0.000000 0.232680
v 0.144474 0.046760 0.087640
v -0.047878 0.034720 0.221200
v 0.029959 0.092400 0.362880
v -0.023519 0.072520 0.131880
v 0.034999 0.107800 0.196280
v -0.151754 0.110040 0.324800
v -0.269349 0.370720 0.264600
v -0.109756 0.151200 0.187040
v 0.000000 0.222880 0.128800
v 0.081477 0.251440 0.264320
v 0.000000 0.273280 0.273280
v -0.075877 -0.055160 0.350560
v -0.141954 0.000000 0.245840
v -0.257310 0.000000 0.148400
v -0.264589 0.085960 0.278040
v -0.157074 -0.050960 0.165200
v -0.249190 0.181160 0.308280
v -0.082597 0.026880 0.050120
v 0.000000 0.000000 0.280000
v 0.083997 0.000000 0.314160
v 0.003360 -0.010920 0.043120
v 0.057118 -0.078680 0.097160
v 0.022399 -0.069440 0.126560
v 0.084277 -0.061320 0.180880
v 0.222031 0.000000 0.384720
v 0.192072 -0.062160 0.201880
v 0.242470 0.000000 0.139720
v 0.451622 -0.146720 0.274120
v -0.034159 -0.105280 0.191800
v -0.019039 -0.014000 0.041160
v -0.048438 -0.066640 0.082320
v 0.000000 -0.057680 0.057680
v 0.017639 -0.054600 0.057400
v -0.172473 -0.237440 0.169400
v -0.203552 -0.147840 0.251720
vn 0.435518 -0.888027 0.147420
vn 0.371665 -0.585121 0.720763
vn 0.436667 -0.558223 0.705485
vn 0.236790 0.242149 0.940901
vn 0.542767 -0.331735 0.771593
vn -0.976849 -0.039459 -0.210259
vn -0.990845 -0.058658 0.121593
vn -0.297553 -0.824423 0.481445
vn -0.690022 0.564057 0.453552
vn -0.407370 0.913083 0.018155
vn -0.627138 0.576914 -0.523324
vn -0.841407 -0.529602 0.107497
vn -0.590922 0.624986 -0.510102
vn -0.317743 -0.738939 0.594145
vn -0.667742 -0.413778 -0.618796
vn -0.446462 -0.724069 -0.525733
vn -0.731080 0.682250 0.007500
vn -0.437407 0.525750 0.729563
vn -0.742442 -0.179621 0.645380
vn 0.406036 -0.067292 0.911376
vn 0.596538 -0.801042 -0.049732
vn -0.414172 -0.808352 -0.418363
vn -0.531238 -0.831540 -0.162257
vn 0.864310 -0.315901 0.391377
vn -0.446324 -0.874113 -0.191627
vn -0.226612 -0.821969 -0.522508
vn 0.490394 -0.871483 0.005581
vn -0.685431 -0.501074 -0.528307
vn 0.179161 -0.036618 0.983138
vn 0.097790 0.202977 0.974288
vn -0.949115 0.064231 0.308309
vn 0.448801 0.100522 0.887960
vn 0.873871 0.450837 0.181920
vn 0.585530 0.754880 0.295485
vn 0.392350 -0.918340 -0.052080
vn -0.684858 0.086302 0.723548
vn 0.062838 -0.584373 0.809049
vn -0.383920 -0.007732 0.923334
vn -0.390710 -0.156361 0.907137
vn -0.425382 -0.022274 0.904740
vn -0.567502 -0.259716 0.781338
vn -0.564600 -0.354860 0.745185
vn -0.462393 -0.194705 0.865033
vn 0.200820 0.217123 0.955264
vn 0.425332 0.813948 0.395704
vn 0.644556 0.749895 0.149013
vn 0.913607 -0.186210 0.361454
vn 0.199663 0.195110 0.960243
vn 0.791282 0.434064 0.430651
vn 0.869749 0.028782 0.492655
vn 0.421929 -0.493612 0.760476
vn 0.279594 0.303827 0.910778
vn 0.746286 0.015277 0.665450
vn 0.340655 0.885313 -0.316504
vn -0.421664 0.902760 -0.084996
vn 0.104157 0.917827 -0.383074
vn -0.924274 0.373950 0.076671
vn -0.946053 0.169813 0.275947
vn -0.911573 0.397152 0.106327
vn 0.903298 0.224845 0.365372
vn -0.161678 0.986728 0.015094
vn -0.282955 0.937304 -0.203463
vn -0.964793 0.207809 -0.161212
vn 0.205964 0.971247 0.119407
vn 0.978944 0.011712 0.203793
vn -0.078266 -0.838607 0.539085
vn -0.609552 -0.462304 0.643989
vn -0.543821 -0.203664 0.814113
vn 0.694961 -0.602515 0.392435
vn 0.953295 -0.063449 -0.295303
vn 0.128404 0.940900 0.313400
vn 0.923588 0.141032 -0.356504
vn 0.102969 0.990061 0.095797
vn -0.467783 0.636744 0.612973
vn 0.193898 0.304646 0.932520
vn -0.433255 0.177897 0.883540
vn 0.587928 0.447943 0.673564
vn 0.627304 0.773039 -0.094343
vn 0.995618 0.072526 -0.059033
vn 0.924634 0.059858 0.376123
vn -0.765875 -0.220595 0.603965
vn -0.891938 -0.292581 0.344736
vn -0.674318 0.687208 -0.270260
vn -0.317652 0.727395 0.608271
vn -0.977381 0.114512 0.177800
vn -0.574424 0.040671 -0.817547
vn -0.270824 0.620164 -0.736241
vn -0.598388 0.609827 -0.519656
vn -0.093255 -0.904291 0.416606
vn 0.096743 -0.505588 0.857334
vn -0.707223 0.703915 0.065875
vn 0.091118 -0.867545 0.488941
vn -0.224912 0.730572 -0.644731
vn -0.084109 0.996412 0.009455
vn -0.174863 0.853677 0.490570
vn -0.786017 -0.098009 -0.610386
vn 0.173123 -0.240058 -0.955196
vn 0.218668 -0.617472 -0.755588
vn 0.756626 -0.632697 -0.164962
vn -0.963038 -0.261956 -0.062748
vn -0.279421 0.107200 0.954166
vn -0.472093 0.015918 0.881405
vn -0.217871 -0.059263 0.974177
vn 0.485688 -0.406136 0.774054
vn -0.049990 -0.650983 0.757445
vn -0.043158 -0.842308 -0.537266
vn 0.739262 -0.653696 -0.161780
vn -0.926695 0.097741 0.362882
vn 0.630246 -0.679504 0.375586
vn 0.362086 -0.082759 0.928464
vn -0.399398 0.204105 0.893769
vn 0.649104 -0.495780 0.576946
vn -0.294466 -0.955387 0.022944
vn -0.283981 -0.956729 0.063443
vn 0.032186 -0.825297 0.563780
vn -0.461785 -0.793522 0.396330
vn -0.272001 -0.877981 -0.393911
vn -0.463167 -0.793089 0.395582
vn -0.459308 -0.789265 0.407549
vn 0.035009 -0.897699 -0.439217
vn 0.668060 -0.731250 -0.137730
vn 0.140100 -0.354852 0.924366
vn 0.123064 0.186450 0.974726
vn 0.473502 -0.004198 0.880783
vn 0.819113 0.196579 -0.538898
vn 0.865754 0.246273 -0.435683
vn 0.414373 -0.366771 -0.832931
vn -0.471217 -0.774706 0.421646
vn -0.244743 0.762753 0.598589
vn -0.117268 0.365470 -0.923406
vn 0.239843 0.380133 -0.893294
vn 0.855633 0.348209 0.382940
vn 0.704710 0.482554 -0.520120
vn 0.800340 0.205504 0.563226
vn -0.408671 -0.166313 0.897401
vn 0.465160 0.737245 -0.489996
vn -0.187163 0.941665 -0.279707
vn 0.135162 -0.080137 0.987577
vn 0.448698 0.305124 0.839982
vn -0.498843 -0.323835 0.803919
vn -0.842998 -0.147561 0.517281
vn -0.944208 0.077755 -0.320040
vn -0.355316 0.359530 -0.862837
vn -0.464529 0.626965 -0.625402
vn 0.848987 0.333864 -0.409580
vn 0.617106 0.309133 0.723614
vn 0.546218 0.369911 0.751540
vn -0.023940 0.997470 0.066936
vn -0.397787 0.815088 0.421185
vn -0.339447 0.939114 0.053296
vn -0.020933 0.872172 -0.488752
vn 0.338284 0.229093 0.912732
vn 0.930083 -0.343902 0.129143
vn 0.938482 -0.334660 0.085175
vn 0.579605 -0.214172 0.786249
vn 0.943146 0.160257 -0.291192
vn 0.528337 -0.698976 0.481967
vn 0.611253 -0.725641 0.315936
vn -0.339030 0.575206 0.744444
vn 0.873742 0.403488 -0.271609
vn -0.791936 0.607214 -0.064248
vn -0.664402 0.650142 0.368627
vn -0.377888 0.191888 0.905748
vn -0.592933 -0.366209 -0.717163
vn 0.280554 -0.913137 0.295754
vn 0.434724 -0.650900 -0.622370
vn -0.024349 -0.015038 -0.999590
vn -0.411210 0.208809 -0.887302
vn -0.389247 -0.258926 -0.883993
vn -0.878860 -0.473529 -0.058095
vn -0.516165 -0.824847 0.230652
vn 0.096218 -0.891434 -0.442819
vn -0.717529 0.488380 -0.496626
vn -0.866696 0.293416 0.403417
vn -0.578248 -0.199622 0.791063
vn 0.160129 -0.230708 -0.959756
vn -0.448211 -0.770323 0.453553
vn -0.186343 -0.703022 -0.686322
vn 0.908760 -0.411708 -0.068207
vn 0.781717 0.156037 -0.603798
vn 0.605885 -0.586874 0.537106
vn 0.466652 -0.511080 0.721827
vn 0.809566 0.161596 0.564348
vn 0.808608 -0.366334 0.460383
vn 0.363451 -0.912934 0.185620
vn 0.216723 -0.259229 -0.941186
vn 0.164124 -0.241407 -0.956445
vn -0.834392 -0.503528 -0.224164
vn 0.326627 -0.193907 0.925048
vn 0.750929 -0.110428 0.651084
vn 0.205850 -0.726599 0.655500
vn 0.743030 -0.121323 0.658170
vn 0.318788 0.928512 0.190367
vn 0.161247 0.798538 0.579945
vn 0.585790 -0.808727 -0.053012
vn 0.170648 0.267979 0.948191
vn 0.579692 0.794152 0.182429
vn 0.156038 0.564016 -0.810887
vn 0.150264 0.235969 -0.960072
vn 0.350422 -0.483785 -0.801970
vn 0.783659 0.572523 -0.241030
vn -0.125852 0.164118 -0.978380
vn 0.279754 0.744247 -0.606493
vn -0.153350 -0.849427 -0.504934
vn 0.432587 -0.424511 -0.795399
vn 0.773813 -0.305808 0.554703
vn 0.768515 -0.183840 0.612852
vn 0.344677 0.934780 0.085934
vn -0.772586 -0.611876 -0.169466
vn -0.588445 -0.669662 0.453083
vn -0.668367 0.431424 -0.605937
vn -0.618712 -0.728835 0.293250
vn -0.798987 -0.486318 0.353716
vn -0.591161 -0.614601 -0.522297
vn -0.645589 -0.760496 -0.069713
vn -0.809651 0.522620 -0.267086
vn 0.571664 0.602507 -0.556943
vn 0.536203 0.840489 0.077880
vn -0.250897 0.761676 0.597412
vn 0.244002 0.665904 -0.705007
vn -0.424870 0.403624 0.810292
vn -0.445814 0.448510 0.774654
vn -0.475429 0.382449 0.792275
vn -0.679833 -0.415632 0.604216
vn -0.747804 0.551025 -0.370352
vn -0.863438 0.417460 0.283201
vn -0.128451 0.545369 -0.828295
vn -0.816635 0.416683 0.399354
vn 0.895717 0.023531 0.444002
vn 0.854685 -0.217223 -0.471516
vn -0.730330 0.372646 0.572496
vn -0.015295 0.064938 -0.997772
vn -0.686912 0.550652 -0.474273
vn -0.520163 0.730064 0.443212
vn 0.954689 0.157617 -0.252441
vn 0.205663 0.491354 0.846330
vn -0.045282 0.358576 0.932402
vn -0.389741 0.701476 -0.596686
vn -0.624575 0.690093 -0.365620
vn 0.684797 0.722186 0.097468
vn 0.307355 0.578240 -0.755759
vn 0.181935 0.539774 -0.821915
vn 0.336554 -0.938545 -0.076575
vn 0.426147 0.351298 -0.833660
vn -0.870480 -0.333495 0.362002
vn -0.864283 -0.337335 0.373122
vn -0.908379 -0.230677 0.348762
vn 0.285141 -0.957760 -0.037278
vn -0.602542 0.492458 -0.628035
vn -0.643613 0.469004 -0.604812
vn -0.162947 -0.971436 0.172513
vn -0.777129 0.564933 -0.277348
vn -0.261138 -0.965128 -0.018274
vn 0.042939 -0.942963 -0.330116
vn 0.037903 -0.941168 -0.335807
vn -0.411377 -0.910433 -0.043366
vn 0.815743 0.216586 -0.536333
vn 0.706802 -0.699813 -0.103403
vn -0.767932 -0.487339 -0.415668
vn 0.562406 -0.824738 -0.059223
vn 0.459479 0.198476 -0.865729
vn 0.002194 0.575659 -0.817687
vn 0.525918 0.447724 -0.723155
vn -0.744215 -0.542908 -0.389096
vn -0.500864 -0.775484 -0.384396
vn -0.666084 -0.234028 -0.708211
vn 0.951112 0.161771 0.263089
vn -0.227154 0.173436 -0.958291
vn 0.014165 0.424296 -0.905413
vn -0.211947 -0.922749 0.321889
vn -0.684846 -0.688027 0.240009
vn 0.075875 -0.983913 0.161736
vn 0.083685 -0.826747 -0.556315
vn 0.163895 -0.826396 -0.538710
vn 0.426687 0.882941 0.195843
vn -0.389779 0.513721 -0.764306
vn 0.461089 0.751256 -0.472241
vn 0.381195 0.747574 -0.543897
vn 0.201828 0.582801 -0.787152
vn -0.539168 0.753929 -0.375351
vn -0.555802 -0.389323 -0.734515
vn 0.101476 -0.689304 -0.717330
vn 0.337918 0.938759 0.067400
vn -0.035675 -0.375491 -0.926139
vn 0.328243 0.237327 -0.914294
vn 0.699513 -0.316648 0.640637
vn 0.408102 -0.750150 0.520316
vn 0.742624 0.664669 0.082008
vn 0.018618 0.998778 -0.045779
vn 0.786689 0.561464 -0.256668
vn 0.208763 0.888611 -0.408397
vn 0.567511 -0.607615 -0.555640
vn 0.549511 0.342272 -0.762160
vn 0.050132 0.974582 -0.218350
vn 0.069055 0.972143 -0.223983
vn 0.071928 0.940679 -0.331588
vn -0.822560 0.565758 -0.057562
vn 0.331231 0.236291 -0.913484
vn -0.548174 -0.834365 -0.057787
vn 0.320803 0.192395 -0.927399
vn 0.384159 0.907789 0.168350
vn 0.762104 0.321623 -0.561922
vn 0.368027 -0.112602 -0.922972
vn 0.219684 -0.354193 -0.909003
vn -0.614469 0.787655 -0.045026
vn -0.967930 -0.010625 -0.250995
vn -0.114559 -0.825425 -0.552765
vn 0.964952 0.170040 0.199885
vn -0.414968 -0.198464 -0.887926
vn -0.004810 0.942782 0.333374
vn 0.700690 -0.639182 -0.316984
vn -0.292885 0.922155 0.252684
vn -0.164525 0.962037 0.217752
vn 0.038309 -0.305875 -0.951301
vn 0.274918 -0.332961 -0.901974
vn -0.236065 -0.297449 -0.925093
vn -0.683970 -0.172288 -0.708873
vn -0.771053 0.264660 -0.579165
vn -0.347555 -0.213143 -0.913113
vn 0.961819 0.262516 0.077390
s off
f 13//1 14//1 15//1
f 31//2 2//2 1//2
f 4//3 1//3 2//3
f 2//4 6//4 4//4
f 1//5 4//5 13//5
f 50//6 3//6 5//6
f 4//7 5//7 3//7
f 3//8 13//8 4//8
f 5//9 4//9 6//9
f 6//10 7//10 5//10
f 8//11 5//11 7//11
f 7//12 30//12 8//12
f 5//13 8//13 50//13
f 13//14 3//14 14//14
f 9//15 14//15 3//15
f 3//16 50//16 9//16
f 14//17 9//17 85//17
f 31//18 1//18 18//18
f 10//19 18//19 1//19
f 1//20 13//20 10//20
f 18//21 10//21 12//21
f 58//22 11//22 15//22
f 10//23 15//23 11//23
f 11//24 12//24 10//24
f 15//25 10//25 13//25
f 16//26 15//26 14//26
f 14//27 85//27 16//27
f 15//28 16//28 58//28
f 12//29 11//29 22//29
f 57//30 22//30 11//30
f 11//31 58//31 57//31
f 22//32 57//32 17//32
f 31//33 18//33 20//33
f 19//34 20//34 18//34
f 18//35 12//35 19//35
f 20//36 19//36 37//36
f 65//37 21//37 23//37
f 19//38 23//38 21//38
f 21//39 37//39 19//39
f 23//40 19//40 12//40
f 12//41 22//41 23//41
f 70//42 23//42 22//42
f 22//43 17//43 70//43
f 23//44 70//44 65//44
f 37//45 21//45 38//45
f 67//46 38//46 21//46
f 21//47 65//47 67//47
f 38//48 67//48 24//48
f 31//49 32//49 2//49
f 26//50 2//50 32//50
f 32//51 36//51 26//51
f 2//52 26//52 6//52
f 75//53 28//53 25//53
f 26//54 25//54 28//54
f 28//55 6//55 26//55
f 25//56 26//56 36//56
f 36//57 42//57 25//57
f 27//58 25//58 42//58
f 42//59 43//59 27//59
f 25//60 27//60 75//60
f 6//61 28//61 7//61
f 29//62 7//62 28//62
f 28//63 75//63 29//63
f 7//64 29//64 30//64
f 31//65 20//65 32//65
f 33//66 32//66 20//66
f 20//67 37//67 33//67
f 32//68 33//68 36//68
f 41//69 35//69 34//69
f 33//70 34//70 35//70
f 35//71 36//71 33//71
f 34//72 33//72 37//72
f 37//73 38//73 34//73
f 39//74 34//74 38//74
f 38//75 24//75 39//75
f 34//76 39//76 41//76
f 36//77 35//77 42//77
f 40//78 42//78 35//78
f 35//79 41//79 40//79
f 42//80 40//80 43//80
f 154//81 44//81 113//81
f 46//82 113//82 44//82
f 44//83 89//83 46//83
f 113//84 46//84 49//84
f 50//85 45//85 48//85
f 46//86 48//86 45//86
f 45//87 49//87 46//87
f 48//88 46//88 89//88
f 89//89 47//89 48//89
f 9//90 48//90 47//90
f 47//91 85//91 9//91
f 48//92 9//92 50//92
f 49//93 45//93 106//93
f 8//94 106//94 45//94
f 45//95 50//95 8//95
f 106//96 8//96 30//96
f 95//97 51//97 52//97
f 53//98 52//98 51//98
f 51//99 54//99 53//99
f 52//100 53//100 88//100
f 58//101 59//101 55//101
f 53//102 55//102 59//102
f 59//103 88//103 53//103
f 55//104 53//104 54//104
f 54//105 56//105 55//105
f 57//106 55//106 56//106
f 56//107 17//107 57//107
f 55//108 57//108 58//108
f 88//109 59//109 60//109
f 16//110 60//110 59//110
f 59//111 58//111 16//111
f 60//112 16//112 85//112
f 61//113 62//113 97//113
f 63//114 97//114 62//114
f 62//115 101//115 63//115
f 97//116 63//116 64//116
f 65//117 69//117 68//117
f 63//118 68//118 69//118
f 69//119 64//119 63//119
f 68//120 63//120 101//120
f 101//121 66//121 68//121
f 67//122 68//122 66//122
f 66//123 24//123 67//123
f 68//124 67//124 65//124
f 64//125 69//125 92//125
f 70//126 92//126 69//126
f 69//127 65//127 70//127
f 92//128 70//128 17//128
f 110//129 71//129 122//129
f 73//130 122//130 71//130
f 71//131 72//131 73//131
f 122//132 73//132 115//132
f 75//133 76//133 74//133
f 73//134 74//134 76//134
f 76//135 115//135 73//135
f 74//136 73//136 72//136
f 72//137 105//137 74//137
f 29//138 74//138 105//138
f 105//139 30//139 29//139
f 74//140 29//140 75//140
f 115//141 76//141 77//141
f 27//142 77//142 76//142
f 76//143 75//143 27//143
f 77//144 27//144 43//144
f 118//145 79//145 104//145
f 78//146 104//146 79//146
f 79//147 117//147 78//147
f 104//148 78//148 80//148
f 41//149 81//149 82//149
f 78//150 82//150 81//150
f 81//151 80//151 78//151
f 82//152 78//152 117//152
f 117//153 83//153 82//153
f 40//154 82//154 83//154
f 83//155 43//155 40//155
f 82//156 40//156 41//156
f 80//157 81//157 84//157
f 39//158 84//158 81//158
f 81//159 41//159 39//159
f 84//160 39//160 24//160
f 85//161 47//161 60//161
f 86//162 60//162 47//162
f 47//163 89//163 86//163
f 60//164 86//164 88//164
f 126//165 90//165 87//165
f 86//166 87//166 90//166
f 90//167 88//167 86//167
f 87//168 86//168 89//168
f 89//169 44//169 87//169
f 128//170 87//170 44//170
f 44//171 154//171 128//171
f 87//172 128//172 126//172
f 88//173 90//173 52//173
f 91//174 52//174 90//174
f 90//175 126//175 91//175
f 52//176 91//176 95//176
f 17//177 56//177 92//177
f 93//178 92//178 56//178
f 56//179 54//179 93//179
f 92//180 93//180 64//180
f 96//181 98//181 94//181
f 93//182 94//182 98//182
f 98//183 64//183 93//183
f 94//184 93//184 54//184
f 54//185 51//185 94//185
f 136//186 94//186 51//186
f 51//187 95//187 136//187
f 94//188 136//188 96//188
f 64//189 98//189 97//189
f 134//190 97//190 98//190
f 98//191 96//191 134//191
f 97//192 134//192 61//192
f 24//193 66//193 84//193
f 99//194 84//194 66//194
f 66//195 101//195 99//195
f 84//196 99//196 80//196
f 141//197 100//197 102//197
f 99//198 102//198 100//198
f 100//199 80//199 99//199
f 102//200 99//200 101//200
f 101//201 62//201 102//201
f 145//202 102//202 62//202
f 62//203 61//203 145//203
f 102//204 145//204 141//204
f 80//205 100//205 104//205
f 103//206 104//206 100//206
f 100//207 141//207 103//207
f 104//208 103//208 118//208
f 30//209 105//209 106//209
f 109//210 106//210 105//210
f 105//211 72//211 109//211
f 106//212 109//212 49//212
f 107//213 108//213 111//213
f 109//214 111//214 108//214
f 108//215 49//215 109//215
f 111//216 109//216 72//216
f 72//217 71//217 111//217
f 112//218 111//218 71//218
f 71//219 110//219 112//219
f 111//220 112//220 107//220
f 49//221 108//221 113//221
f 155//222 113//222 108//222
f 108//223 107//223 155//223
f 113//224 155//224 154//224
f 43//225 83//225 77//225
f 114//226 77//226 83//226
f 83//227 117//227 114//227
f 77//228 114//228 115//228
f 120//229 119//229 116//229
f 114//230 116//230 119//230
f 119//231 115//231 114//231
f 116//232 114//232 117//232
f 117//233 79//233 116//233
f 161//234 116//234 79//234
f 79//235 118//235 161//235
f 116//236 161//236 120//236
f 115//237 119//237 122//237
f 121//238 122//238 119//238
f 119//239 120//239 121//239
f 122//240 121//240 110//240
f 146//241 130//241 147//241
f 123//242 147//242 130//242
f 130//243 132//243 123//243
f 147//244 123//244 152//244
f 126//245 125//245 124//245
f 123//246 124//246 125//246
f 125//247 152//247 123//247
f 124//248 123//248 132//248
f 132//249 137//249 124//249
f 91//250 124//250 137//250
f 137//251 95//251 91//251
f 124//252 91//252 126//252
f 152//253 125//253 127//253
f 128//254 127//254 125//254
f 125//255 126//255 128//255
f 127//256 128//256 154//256
f 146//257 129//257 130//257
f 131//258 130//258 129//258
f 129//259 133//259 131//259
f 130//260 131//260 132//260
f 96//261 138//261 135//261
f 131//262 135//262 138//262
f 138//263 132//263 131//263
f 135//264 131//264 133//264
f 133//265 144//265 135//265
f 134//266 135//266 144//266
f 144//267 61//267 134//267
f 135//268 134//268 96//268
f 132//269 138//269 137//269
f 136//270 137//270 138//270
f 138//271 96//271 136//271
f 137//272 136//272 95//272
f 146//273 139//273 129//273
f 140//274 129//274 139//274
f 139//275 157//275 140//275
f 129//276 140//276 133//276
f 141//277 142//277 143//277
f 140//278 143//278 142//278
f 142//279 133//279 140//279
f 143//280 140//280 157//280
f 157//281 162//281 143//281
f 103//282 143//282 162//282
f 162//283 118//283 103//283
f 143//284 103//284 141//284
f 133//285 142//285 144//285
f 145//286 144//286 142//286
f 142//287 141//287 145//287
f 144//288 145//288 61//288
f 146//289 147//289 148//289
f 151//290 148//290 147//290
f 147//291 152//291 151//291
f 148//292 151//292 150//292
f 107//293 149//293 153//293
f 151//294 153//294 149//294
f 149//295 150//295 151//295
f 153//296 151//296 152//296
f 152//297 127//297 153//297
f 155//298 153//298 127//298
f 127//299 154//299 155//299
f 153//300 155//300 107//300
f 150//301 149//301 160//301
f 112//302 160//302 149//302
f 149//303 107//303 112//303
f 160//304 112//304 110//304
f 146//305 148//305 139//305
f 156//306 139//306 148//306
f 148//307 150//307 156//307
f 139//308 156//308 157//308
f 120//309 158//309 159//309
f 156//310 159//310 158//310
f 158//311 157//311 156//311
f 159//312 156//312 150//312
f 150//313 160//313 159//313
f 121//314 159//314 160//314
f 160//315 110//315 121//315
f 159//316 121//316 120//316
f 157//317 158//317 162//317
f 161//318 162//318 158//318
f 158//319 120//319 161//319
f 162//320 161//320 118//320
