# Blender v2.66 (sub 1) OBJ File: ''
# www.blender.org
v 0.000000 -0.500000 -0.500000
v 0.000000 0.500000 -0.500000
v 0.065263 -0.500000 -0.495722
v 0.065263 0.500000 -0.495722
v 0.129410 -0.500000 -0.482963
v 0.129410 0.500000 -0.482963
v 0.191342 -0.500000 -0.461940
v 0.191342 0.500000 -0.461940
v 0.250000 -0.500000 -0.433013
v 0.250000 0.500000 -0.433013
v 0.304381 -0.500000 -0.396677
v 0.304381 0.500000 -0.396677
v 0.353553 -0.500000 -0.353553
v 0.353553 0.500000 -0.353553
v 0.396677 -0.500000 -0.304381
v 0.396677 0.500000 -0.304381
v 0.433013 -0.500000 -0.250000
v 0.433013 0.500000 -0.250000
v 0.461940 -0.500000 -0.191342
v 0.461940 0.500000 -0.191342
v 0.482963 -0.500000 -0.129410
v 0.482963 0.500000 -0.129410
v 0.495722 -0.500000 -0.065263
v 0.495722 0.500000 -0.065263
v 0.500000 -0.500000 -0.000000
v 0.500000 0.500000 -0.000000
v 0.495722 -0.500000 0.065263
v 0.495722 0.500000 0.065263
v 0.482963 -0.500000 0.129409
v 0.482963 0.500000 0.129409
v 0.461940 -0.500000 0.191342
v 0.461940 0.500000 0.191342
v 0.433013 -0.500000 0.250000
v 0.433013 0.500000 0.250000
v 0.396677 -0.500000 0.304381
v 0.396677 0.500000 0.304381
v 0.353553 -0.500000 0.353553
v 0.353553 0.500000 0.353553
v 0.304381 -0.500000 0.396677
v 0.304381 0.500000 0.396677
v 0.250000 -0.500000 0.433013
v 0.250000 0.500000 0.433013
v 0.191342 -0.500000 0.461940
v 0.191342 0.500000 0.461940
v 0.129410 -0.500000 0.482963
v 0.129410 0.500000 0.482963
v 0.065263 -0.500000 0.495722
v 0.065263 0.500000 0.495722
v 0.000000 -0.500000 0.500000
v 0.000000 0.500000 0.500000
v -0.065263 -0.500000 0.495722
v -0.065263 0.500000 0.495722
v -0.129409 -0.500000 0.482963
v -0.129409 0.500000 0.482963
v -0.191342 -0.500000 0.461940
v -0.191342 0.500000 0.461940
v -0.250000 -0.500000 0.433013
v -0.250000 0.500000 0.433013
v -0.304381 -0.500000 0.396677
v -0.304381 0.500000 0.396677
v -0.353553 -0.500000 0.353554
v -0.353553 0.500000 0.353554
v -0.396677 -0.500000 0.304381
v -0.396677 0.500000 0.304381
v -0.433013 -0.500000 0.250000
v -0.433013 0.500000 0.250000
v -0.461940 -0.500000 0.191342
v -0.461940 0.500000 0.191342
v -0.482963 -0.500000 0.129409
v -0.482963 0.500000 0.129409
v -0.495722 -0.500000 0.065263
v -0.495722 0.500000 0.065263
v -0.500000 -0.500000 -0.000000
v -0.500000 0.500000 -0.000000
v -0.495722 -0.500000 -0.065263
v -0.495722 0.500000 -0.065263
v -0.482963 -0.500000 -0.129410
v -0.482963 0.500000 -0.129410
v -0.461940 -0.500000 -0.191342
v -0.461940 0.500000 -0.191342
v -0.433012 -0.500000 -0.250001
v -0.433012 0.500000 -0.250001
v -0.396676 -0.500000 -0.304381
v -0.396676 0.500000 -0.304381
v -0.353553 -0.500000 -0.353554
v -0.353553 0.500000 -0.353554
v -0.304380 -0.500000 -0.396677
v -0.304380 0.500000 -0.396677
v -0.249999 -0.500000 -0.433013
v -0.249999 0.500000 -0.433013
v -0.191341 -0.500000 -0.461940
v -0.191341 0.500000 -0.461940
v -0.129408 -0.500000 -0.482963
v -0.129408 0.500000 -0.482963
v -0.065262 -0.500000 -0.495723
v -0.065262 0.500000 -0.495723
vt 0.888233 0.372573
vt 0.726077 0.784622
vt 0.711502 0.768574
vt 0.874722 0.356525
vt 0.697689 0.751456
vt 0.861427 0.339407
vt 0.684338 0.733560
vt 0.848302 0.321511
vt 0.671238 0.715193
vt 0.835281 0.303144
vt 0.658235 0.696669
vt 0.822278 0.284621
vt 0.645214 0.678306
vt 0.809177 0.266257
vt 0.632088 0.660416
vt 0.795823 0.248368
vt 0.618791 0.643307
vt 0.782003 0.231259
vt 0.605277 0.627272
vt 0.767419 0.215223
vt 0.591519 0.612583
vt 0.751625 0.200534
vt 0.577505 0.599493
vt 0.733929 0.187445
vt 0.563237 0.588227
vt 0.713191 0.176178
vt 0.548736 0.578975
vt 0.687441 0.166926
vt 0.534037 0.571898
vt 0.653167 0.159849
vt 0.519185 0.567115
vt 0.604576 0.155066
vt 0.504238 0.564710
vt 0.536261 0.152661
vt 0.489259 0.564722
vt 0.456608 0.152673
vt 0.474312 0.567152
vt 0.388489 0.155103
vt 0.459462 0.571958
vt 0.340076 0.159909
vt 0.444764 0.579058
vt 0.305913 0.167009
vt 0.430266 0.588330
vt 0.280227 0.176281
vt 0.416001 0.599616
vt 0.259528 0.187568
vt 0.401988 0.612723
vt 0.241856 0.200674
vt 0.388233 0.627427
vt 0.226077 0.215378
vt 0.211502 0.231426
vt 0.374722 0.643475
vt 0.197689 0.248544
vt 0.361427 0.660593
vt 0.184338 0.266440
vt 0.348302 0.678489
vt 0.171238 0.284807
vt 0.335281 0.696856
vt 0.158235 0.303330
vt 0.322278 0.715379
vt 0.145214 0.321694
vt 0.309177 0.733743
vt 0.132088 0.339584
vt 0.295823 0.751632
vt 0.118791 0.356693
vt 0.282003 0.768741
vt 0.105277 0.372728
vt 0.267419 0.784777
vt 0.091519 0.387417
vt 0.251625 0.799466
vt 0.077505 0.400507
vt 0.233928 0.812555
vt 0.063237 0.411773
vt 0.213191 0.823822
vt 0.048736 0.421025
vt 0.187441 0.833074
vt 0.034037 0.428102
vt 0.153167 0.840151
vt 0.019185 0.432885
vt 0.104575 0.844934
vt 0.004238 0.435290
vt 1.004238 0.435290
vt 1.036260 0.847339
vt 0.989259 0.435278
vt 0.956607 0.847327
vt 0.974312 0.432848
vt 0.888488 0.844897
vt 0.959462 0.428042
vt 0.840075 0.840091
vt 0.944764 0.420942
vt 0.805912 0.832991
vt 0.930265 0.411670
vt 0.780227 0.823718
vt 0.916000 0.400383
vt 0.901988 0.387276
vt 0.741855 0.799325
vt 0.759528 0.812432
vt 0.036260 0.847339
vt 1.104575 0.844934
vt 1.153167 0.840151
vt 1.187441 0.833074
vt 1.213191 0.823822
vt 1.233928 0.812555
vt 1.251625 0.799466
vt 1.267419 0.784777
vt 1.282003 0.768741
vt 1.295823 0.751632
vt 1.309177 0.733743
vt 1.322278 0.715379
vt 1.335281 0.696856
vt 1.348302 0.678489
vt 1.361427 0.660593
vt 1.374722 0.643475
vt 1.388233 0.627427
vt 1.401989 0.612723
vt 1.416001 0.599616
vt 1.430266 0.588330
vt 1.444764 0.579058
vt 1.456608 0.152673
vt 1.388489 0.155103
vt 1.340076 0.159909
vt 1.305913 0.167009
vt 1.280227 0.176281
vt 1.259528 0.187568
vt 1.241856 0.200674
vt 1.226077 0.215378
vt 1.211502 0.231426
vt 1.197689 0.248544
vt 1.184338 0.266440
vt 1.171238 0.284807
vt 1.158235 0.303330
vt 1.145214 0.321694
vt 1.132088 0.339584
vt 1.118791 0.356693
vt 1.105277 0.372728
vt 1.091519 0.387417
vt 1.077505 0.400507
vt 1.063237 0.411773
vt 1.048736 0.421025
vt 1.034037 0.428102
vt 1.019185 0.432885
vn 0.000000 -0.692648 -0.721244
vn 0.000000 0.692648 -0.721244
vn 0.094119 0.692648 -0.715049
vn 0.094119 -0.692648 -0.715049
vn 0.186651 0.692679 -0.696646
vn 0.186651 -0.692648 -0.696646
vn 0.275979 0.692648 -0.666341
vn 0.275979 -0.692648 -0.666341
vn 0.360607 0.692648 -0.624592
vn 0.360607 -0.692648 -0.624592
vn 0.439039 0.692648 -0.572192
vn 0.439039 -0.692648 -0.572192
vn 0.509995 0.692648 -0.509995
vn 0.509995 -0.692648 -0.509995
vn 0.572192 0.692648 -0.439039
vn 0.572192 -0.692648 -0.439039
vn 0.624592 0.692648 -0.360607
vn 0.624592 -0.692648 -0.360607
vn 0.666341 0.692648 -0.275979
vn 0.666341 -0.692648 -0.275979
vn 0.696646 0.692648 -0.186651
vn 0.696646 -0.692648 -0.186651
vn 0.715049 0.692648 -0.094119
vn 0.715049 -0.692648 -0.094119
vn 0.721244 0.692648 0.000000
vn 0.721244 -0.692648 0.000000
vn 0.715049 0.692648 0.094119
vn 0.715049 -0.692648 0.094119
vn 0.696646 0.692648 0.186651
vn 0.696646 -0.692648 0.186651
vn 0.666341 0.692648 0.275979
vn 0.666341 -0.692648 0.275979
vn 0.624592 0.692648 0.360607
vn 0.624592 -0.692648 0.360607
vn 0.572192 0.692648 0.439039
vn 0.572192 -0.692648 0.439039
vn 0.509995 0.692648 0.509995
vn 0.509995 -0.692648 0.509995
vn 0.439039 0.692648 0.572192
vn 0.439039 -0.692648 0.572192
vn 0.360607 0.692648 0.624592
vn 0.360607 -0.692648 0.624592
vn 0.276009 0.692648 0.666341
vn 0.276009 -0.692648 0.666341
vn 0.186651 0.692648 0.696646
vn 0.186651 -0.692648 0.696646
vn 0.094119 0.692648 0.715049
vn 0.094119 -0.692648 0.715049
vn 0.000000 0.692648 0.721244
vn 0.000000 -0.692648 0.721244
vn -0.094119 -0.692648 0.715049
vn -0.094119 0.692648 0.715049
vn -0.186651 -0.692648 0.696646
vn -0.186651 0.692648 0.696646
vn -0.275979 -0.692648 0.666341
vn -0.275979 0.692648 0.666341
vn -0.360607 -0.692648 0.624592
vn -0.360607 0.692648 0.624592
vn -0.439039 -0.692648 0.572192
vn -0.439039 0.692648 0.572192
vn -0.509995 -0.692648 0.509995
vn -0.509995 0.692648 0.509995
vn -0.572192 -0.692648 0.439039
vn -0.572192 0.692648 0.439039
vn -0.624592 -0.692648 0.360607
vn -0.624592 0.692648 0.360607
vn -0.666341 -0.692648 0.276009
vn -0.666341 0.692648 0.276009
vn -0.696646 -0.692648 0.186651
vn -0.696646 0.692648 0.186651
vn -0.715049 -0.692648 0.094119
vn -0.715049 0.692648 0.094119
vn -0.721244 -0.692648 0.000000
vn -0.721244 0.692648 0.000000
vn -0.715049 -0.692648 -0.094119
vn -0.715049 0.692648 -0.094119
vn -0.696646 -0.692648 -0.186651
vn -0.696646 0.692648 -0.186651
vn -0.666341 -0.692648 -0.276009
vn -0.666341 0.692648 -0.276009
vn -0.624592 -0.692648 -0.360607
vn -0.624592 0.692648 -0.360607
vn -0.572192 -0.692648 -0.439039
vn -0.572192 0.692648 -0.439039
vn -0.509995 -0.692648 -0.509995
vn -0.509995 0.692648 -0.509995
vn -0.439039 -0.692648 -0.572192
vn -0.439039 0.692648 -0.572192
vn -0.360607 -0.692648 -0.624592
vn -0.360607 0.692648 -0.624592
vn -0.275979 -0.692648 -0.666341
vn -0.275979 0.692648 -0.666341
vn -0.186651 -0.692648 -0.696646
vn -0.094119 -0.692679 -0.715049
vn -0.094119 0.692648 -0.715049
vn -0.186651 0.692648 -0.696646
s 1
f 1/1/1 2/2/2 4/3/3
f 3/4/4 4/3/3 6/5/5
f 5/6/6 6/5/5 8/7/7
f 7/8/8 8/7/7 10/9/9
f 9/10/10 10/9/9 12/11/11
f 11/12/12 12/11/11 14/13/13
f 13/14/14 14/13/13 16/15/15
f 15/16/16 16/15/15 18/17/17
f 17/18/18 18/17/17 20/19/19
f 19/20/20 20/19/19 22/21/21
f 21/22/22 22/21/21 24/23/23
f 23/24/24 24/23/23 26/25/25
f 25/26/26 26/25/25 28/27/27
f 27/28/28 28/27/27 30/29/29
f 29/30/30 30/29/29 32/31/31
f 31/32/32 32/31/31 34/33/33
f 33/34/34 34/33/33 36/35/35
f 35/36/36 36/35/35 38/37/37
f 37/38/38 38/37/37 40/39/39
f 39/40/40 40/39/39 42/41/41
f 41/42/42 42/41/41 44/43/43
f 43/44/44 44/43/43 46/45/45
f 45/46/46 46/45/45 48/47/47
f 47/48/48 48/47/47 50/49/49
f 49/50/50 50/49/49 51/51/51
f 51/51/51 52/52/52 53/53/53
f 53/53/53 54/54/54 55/55/55
f 55/55/55 56/56/56 57/57/57
f 57/57/57 58/58/58 59/59/59
f 59/59/59 60/60/60 61/61/61
f 61/61/61 62/62/62 63/63/63
f 63/63/63 64/64/64 65/65/65
f 65/65/65 66/66/66 67/67/67
f 67/67/67 68/68/68 69/69/69
f 69/69/69 70/70/70 71/71/71
f 71/71/71 72/72/72 73/73/73
f 73/73/73 74/74/74 75/75/75
f 75/75/75 76/76/76 77/77/77
f 77/77/77 78/78/78 79/79/79
f 79/79/79 80/80/80 81/81/81
f 81/82/81 82/83/82 83/84/83
f 83/84/83 84/85/84 85/86/85
f 85/86/85 86/87/86 87/88/87
f 87/88/87 88/89/88 89/90/89
f 89/90/89 90/91/90 91/92/91
f 91/92/91 92/93/92 93/94/93
f 4/3/3 2/2/2 6/5/5
f 95/95/94 96/96/95 1/1/1
f 93/94/93 94/97/96 95/95/94
f 1/1/1 3/4/4 95/95/94
f 3/4/4 1/1/1 4/3/3
f 5/6/6 3/4/4 6/5/5
f 7/8/8 5/6/6 8/7/7
f 9/10/10 7/8/8 10/9/9
f 11/12/12 9/10/10 12/11/11
f 13/14/14 11/12/12 14/13/13
f 15/16/16 13/14/14 16/15/15
f 17/18/18 15/16/16 18/17/17
f 19/20/20 17/18/18 20/19/19
f 21/22/22 19/20/20 22/21/21
f 23/24/24 21/22/22 24/23/23
f 25/26/26 23/24/24 26/25/25
f 27/28/28 25/26/26 28/27/27
f 29/30/30 27/28/28 30/29/29
f 31/32/32 29/30/30 32/31/31
f 33/34/34 31/32/32 34/33/33
f 35/36/36 33/34/34 36/35/35
f 37/38/38 35/36/36 38/37/37
f 39/40/40 37/38/38 40/39/39
f 41/42/42 39/40/40 42/41/41
f 43/44/44 41/42/42 44/43/43
f 45/46/46 43/44/44 46/45/45
f 47/48/48 45/46/46 48/47/47
f 49/50/50 47/48/48 50/49/49
f 50/49/49 52/52/52 51/51/51
f 52/52/52 54/54/54 53/53/53
f 54/54/54 56/56/56 55/55/55
f 56/56/56 58/58/58 57/57/57
f 58/58/58 60/60/60 59/59/59
f 60/60/60 62/62/62 61/61/61
f 62/62/62 64/64/64 63/63/63
f 64/64/64 66/66/66 65/65/65
f 66/66/66 68/68/68 67/67/67
f 68/68/68 70/70/70 69/69/69
f 70/70/70 72/72/72 71/71/71
f 72/72/72 74/74/74 73/73/73
f 74/74/74 76/76/76 75/75/75
f 76/76/76 78/78/78 77/77/77
f 78/78/78 80/80/80 79/79/79
f 80/80/80 82/98/82 81/81/81
f 82/83/82 84/85/84 83/84/83
f 84/85/84 86/87/86 85/86/85
f 86/87/86 88/89/88 87/88/87
f 88/89/88 90/91/90 89/90/89
f 90/91/90 92/93/92 91/92/91
f 92/93/92 94/97/96 93/94/93
f 2/2/2 96/96/95 6/5/5
f 96/96/95 94/97/96 6/5/5
f 94/97/96 92/93/92 6/5/5
f 92/93/92 90/91/90 6/5/5
f 90/91/90 88/89/88 6/5/5
f 88/89/88 86/87/86 6/5/5
f 86/87/86 84/85/84 6/5/5
f 84/85/84 82/83/82 6/5/5
f 82/83/82 80/99/80 6/5/5
f 80/99/80 78/100/78 6/5/5
f 78/100/78 76/101/76 6/5/5
f 76/101/76 74/102/74 6/5/5
f 74/102/74 72/103/72 6/5/5
f 72/103/72 70/104/70 6/5/5
f 70/104/70 68/105/68 6/5/5
f 68/105/68 66/106/66 6/5/5
f 66/106/66 64/107/64 6/5/5
f 64/107/64 62/108/62 6/5/5
f 62/108/62 60/109/60 6/5/5
f 60/109/60 58/110/58 6/5/5
f 58/110/58 56/111/56 6/5/5
f 56/111/56 54/112/54 6/5/5
f 54/112/54 52/113/52 6/5/5
f 52/113/52 50/114/49 6/5/5
f 50/114/49 48/115/47 6/5/5
f 48/115/47 46/116/45 6/5/5
f 46/116/45 44/117/43 6/5/5
f 44/117/43 42/118/41 6/5/5
f 42/118/41 40/39/39 6/5/5
f 40/39/39 38/37/37 6/5/5
f 38/37/37 36/35/35 6/5/5
f 36/35/35 34/33/33 6/5/5
f 34/33/33 32/31/31 6/5/5
f 32/31/31 30/29/29 6/5/5
f 30/29/29 28/27/27 6/5/5
f 28/27/27 26/25/25 6/5/5
f 26/25/25 24/23/23 6/5/5
f 24/23/23 22/21/21 6/5/5
f 22/21/21 20/19/19 6/5/5
f 20/19/19 18/17/17 6/5/5
f 18/17/17 16/15/15 6/5/5
f 16/15/15 14/13/13 6/5/5
f 14/13/13 12/11/11 6/5/5
f 12/11/11 10/9/9 8/7/7
f 6/5/5 12/11/11 8/7/7
f 96/96/95 2/2/2 1/1/1
f 94/97/96 96/96/95 95/95/94
f 3/4/4 5/6/6 95/95/94
f 5/6/6 7/8/8 95/95/94
f 7/8/8 9/10/10 95/95/94
f 9/10/10 11/12/12 95/95/94
f 11/12/12 13/14/14 95/95/94
f 13/14/14 15/16/16 95/95/94
f 15/16/16 17/18/18 95/95/94
f 17/18/18 19/20/20 95/95/94
f 19/20/20 21/22/22 95/95/94
f 21/22/22 23/24/24 95/95/94
f 23/24/24 25/26/26 95/95/94
f 25/26/26 27/28/28 95/95/94
f 27/28/28 29/30/30 95/95/94
f 29/30/30 31/32/32 95/95/94
f 31/32/32 33/34/34 95/95/94
f 33/34/34 35/119/36 95/95/94
f 35/119/36 37/120/38 95/95/94
f 37/120/38 39/121/40 95/95/94
f 39/121/40 41/122/42 95/95/94
f 41/122/42 43/123/44 95/95/94
f 43/123/44 45/124/46 95/95/94
f 45/124/46 47/125/48 95/95/94
f 47/125/48 49/126/50 95/95/94
f 49/126/50 51/127/51 95/95/94
f 51/127/51 53/128/53 95/95/94
f 53/128/53 55/129/55 95/95/94
f 55/129/55 57/130/57 95/95/94
f 57/130/57 59/131/59 95/95/94
f 59/131/59 61/132/61 95/95/94
f 61/132/61 63/133/63 95/95/94
f 63/133/63 65/134/65 95/95/94
f 65/134/65 67/135/67 95/95/94
f 67/135/67 69/136/69 95/95/94
f 69/136/69 71/137/71 95/95/94
f 71/137/71 73/138/73 95/95/94
f 73/138/73 75/139/75 95/95/94
f 75/139/75 77/140/77 95/95/94
f 77/140/77 79/141/79 95/95/94
f 79/141/79 81/82/81 95/95/94
f 81/82/81 83/84/83 95/95/94
f 83/84/83 85/86/85 95/95/94
f 85/86/85 87/88/87 95/95/94
f 87/88/87 89/90/89 95/95/94
f 89/90/89 91/92/91 93/94/93
f 95/95/94 89/90/89 93/94/93
