# Blender v2.66 (sub 1) OBJ File: ''
# www.blender.org
v 0.207032 -0.225151 -0.207032
v 0.000000 -0.441551 -0.000000
v 0.000000 -0.225151 -0.292787
v 0.207032 -0.008751 -0.499819
v 0.499819 -0.008751 -0.207032
v 0.331251 0.085924 -0.331251
v 0.124219 0.180599 -0.299891
v 0.299891 0.180599 -0.124219
v 0.292787 -0.225151 -0.000000
v 0.499819 -0.008751 0.207032
v 0.468459 0.085924 0.000000
v 0.299891 0.180599 0.124219
v 0.207032 -0.225151 0.207032
v 0.207032 -0.008751 0.499819
v 0.331251 0.085924 0.331251
v 0.124219 0.180599 0.299891
v 0.000000 -0.225151 0.292787
v -0.207032 -0.008751 0.499819
v 0.000000 0.085924 0.468459
v -0.124219 0.180599 0.299891
v -0.207032 -0.225151 0.207032
v -0.499819 -0.008751 0.207032
v -0.331251 0.085924 0.331251
v -0.299891 0.180599 0.124219
v -0.292787 -0.225151 -0.000000
v -0.499819 -0.008751 -0.207032
v -0.468459 0.085924 0.000000
v -0.299891 0.180599 -0.124219
v -0.207032 -0.225151 -0.207032
v -0.207032 -0.008751 -0.499819
v -0.331251 0.085924 -0.331251
v -0.124219 0.180599 -0.299891
v 0.000000 0.085924 -0.468459
v 0.000000 0.180599 0.000000
vn 0.239059 -0.780869 -0.577143
vn 0.510937 -0.691293 -0.510938
vn 0.671242 0.314433 -0.671242
vn 0.251997 0.752578 -0.608378
vn 0.346265 0.871896 -0.346264
vn 0.577143 -0.780869 -0.239059
vn 0.722574 -0.691294 -0.000000
vn 0.949278 0.314437 0.000000
vn 0.608378 0.752578 -0.251997
vn 0.489693 0.871895 0.000000
vn 0.577143 -0.780869 0.239059
vn 0.510937 -0.691293 0.510937
vn 0.671242 0.314433 0.671242
vn 0.608378 0.752578 0.251998
vn 0.346265 0.871895 0.346265
vn 0.239059 -0.780869 0.577143
vn 0.000000 -0.691294 0.722574
vn 0.000000 0.314437 0.949278
vn 0.251997 0.752577 0.608379
vn -0.000000 0.871895 0.489694
vn -0.239059 -0.780869 0.577143
vn -0.510937 -0.691293 0.510937
vn -0.671242 0.314433 0.671242
vn -0.251997 0.752578 0.608379
vn -0.346265 0.871895 0.346265
vn -0.577143 -0.780869 0.239059
vn -0.722574 -0.691294 -0.000000
vn -0.949278 0.314437 0.000000
vn -0.608378 0.752578 0.251998
vn -0.489693 0.871895 0.000000
vn -0.577143 -0.780869 -0.239059
vn -0.510937 -0.691293 -0.510938
vn -0.671242 0.314433 -0.671242
vn -0.608379 0.752578 -0.251997
vn -0.346265 0.871896 -0.346264
vn -0.239059 -0.780869 -0.577143
vn -0.000000 -0.691294 -0.722574
vn 0.000000 0.314437 -0.949278
vn -0.251997 0.752578 -0.608378
vn 0.000000 0.871895 -0.489693
vn -0.000000 1.000000 0.000000
vn 0.608378 0.752577 0.251998
vn -0.251997 0.752577 0.608379
vn -0.608378 0.752577 0.251998
vn -0.608378 0.752578 -0.251997
s off
f 1//1 2//1 3//1
f 1//2 4//2 5//2
f 5//3 4//3 6//3
f 6//4 4//4 7//4
f 6//5 7//5 8//5
f 2//6 1//6 9//6
f 9//7 5//7 10//7
f 10//8 5//8 11//8
f 11//9 5//9 8//9
f 11//10 8//10 12//10
f 13//11 2//11 9//11
f 13//12 10//12 14//12
f 14//13 10//13 15//13
f 15//14 10//14 12//14
f 15//15 12//15 16//15
f 17//16 2//16 13//16
f 17//17 14//17 18//17
f 18//18 14//18 19//18
f 19//19 14//19 16//19
f 19//20 16//20 20//20
f 21//21 2//21 18//21
f 21//22 18//22 22//22
f 22//23 18//23 23//23
f 23//24 18//24 19//24
f 23//25 20//25 24//25
f 25//26 2//26 22//26
f 25//27 22//27 26//27
f 26//28 22//28 27//28
f 27//29 22//29 23//29
f 27//30 24//30 28//30
f 29//31 2//31 26//31
f 29//32 26//32 30//32
f 30//33 26//33 31//33
f 31//34 26//34 27//34
f 31//35 28//35 32//35
f 3//36 2//36 30//36
f 3//37 30//37 4//37
f 4//38 30//38 33//38
f 33//39 30//39 31//39
f 33//40 32//40 7//40
f 7//41 32//41 34//41
f 34//41 8//41 7//41
f 34//41 12//41 8//41
f 34//41 16//41 12//41
f 34//41 20//41 16//41
f 34//41 24//41 20//41
f 34//41 28//41 24//41
f 34//41 32//41 28//41
f 4//1 1//1 3//1
f 4//4 33//4 7//4
f 9//6 1//6 5//6
f 5//9 6//9 8//9
f 10//11 13//11 9//11
f 10//42 11//42 12//42
f 14//16 17//16 13//16
f 14//19 15//19 16//19
f 2//21 17//21 18//21
f 20//43 23//43 19//43
f 2//26 21//26 22//26
f 24//44 27//44 23//44
f 2//31 25//31 26//31
f 28//45 31//45 27//45
f 2//36 29//36 30//36
f 32//39 33//39 31//39
