# Blender v2.66 (sub 1) OBJ File: ''
# www.blender.org
v 0.000000 -0.500000 -0.000000
v -0.081223 -0.425327 0.249997
v 0.212649 -0.425327 0.154505
v 0.361781 -0.223610 0.262862
v 0.425298 -0.262868 -0.000000
v -0.262849 -0.425326 -0.000000
v -0.081223 -0.425327 -0.249998
v 0.212649 -0.425327 -0.154506
v 0.475500 -0.000000 0.154507
v -0.138186 -0.223610 0.425324
v 0.000000 -0.000000 0.500000
v 0.131426 -0.262869 0.404506
v -0.447186 -0.223608 -0.000000
v -0.475500 -0.000000 0.154507
v -0.344074 -0.262868 0.249998
v -0.138186 -0.223610 -0.425325
v -0.293875 0.000000 -0.404509
v -0.344074 -0.262868 -0.249999
v 0.361781 -0.223610 -0.262863
v 0.293875 0.000000 -0.404509
v 0.131426 -0.262869 -0.404506
v 0.293875 -0.000000 0.404509
v -0.293875 -0.000000 0.404509
v -0.475500 0.000000 -0.154507
v 0.000000 0.000000 -0.500000
v 0.475500 0.000000 -0.154507
v 0.138186 0.223610 0.425325
v 0.081223 0.425327 0.249998
v 0.344074 0.262868 0.249999
v -0.361781 0.223610 0.262863
v -0.212649 0.425327 0.154506
v -0.131426 0.262869 0.404506
v -0.361781 0.223610 -0.262862
v -0.212649 0.425327 -0.154505
v -0.425298 0.262868 0.000000
v 0.138186 0.223610 -0.425324
v 0.081223 0.425327 -0.249997
v -0.131426 0.262869 -0.404506
v 0.447186 0.223608 0.000000
v 0.262849 0.425326 0.000000
v 0.344074 0.262868 -0.249998
v 0.000000 0.500000 0.000000
vt 0.000000 0.000000
vt 1.000000 0.000000
vt 1.000000 1.000000
vn -0.102387 0.943523 -0.315090
vn -0.700246 0.661679 -0.268024
vn 0.268049 0.943519 -0.194736
vn 0.268049 0.943519 0.194737
vn -0.102387 0.943523 0.315091
vn -0.904999 0.330369 -0.268019
vn -0.024747 0.330386 -0.943521
vn 0.889708 0.330370 -0.315080
vn 0.574625 0.330382 0.748768
vn -0.534600 0.330381 0.777850
vn -0.802626 0.125624 -0.583103
vn 0.306585 0.125629 -0.943516
vn 0.992078 0.125621 0.000000
vn 0.306585 0.125629 0.943516
vn -0.802627 0.125624 0.583103
vn -0.408967 -0.661692 -0.628419
vn 0.471323 -0.661690 -0.583113
vn 0.700246 -0.661679 0.268024
vn -0.038534 -0.661700 0.748778
vn -0.724063 -0.661674 0.194731
vn 0.038534 0.661700 -0.748778
vn -0.187604 0.794657 -0.577343
vn -0.471323 0.661690 -0.583113
vn -0.700246 0.661679 0.268024
vn -0.607084 0.794638 0.000000
vn -0.331323 0.943518 0.000000
vn 0.724063 0.661674 -0.194731
vn 0.491142 0.794645 -0.356817
vn 0.408967 0.661692 -0.628418
vn 0.408967 0.661692 0.628419
vn 0.491142 0.794645 0.356817
vn 0.724063 0.661674 0.194731
vn -0.471323 0.661690 0.583113
vn -0.187605 0.794657 0.577343
vn 0.038534 0.661699 0.748778
vn -0.992078 -0.125621 -0.000000
vn -0.982248 0.187587 0.000000
vn -0.904999 0.330368 0.268019
vn -0.306585 -0.125629 -0.943516
vn -0.303547 0.187596 -0.934166
vn -0.534600 0.330382 -0.777850
vn 0.802627 -0.125624 -0.583103
vn 0.794673 0.187589 -0.577325
vn 0.574625 0.330382 -0.748768
vn 0.802626 -0.125624 0.583103
vn 0.794673 0.187589 0.577325
vn 0.889708 0.330370 0.315080
vn -0.306585 -0.125629 0.943516
vn -0.303547 0.187596 0.934166
vn -0.024747 0.330386 0.943521
vn -0.574625 -0.330382 -0.748768
vn -0.794673 -0.187589 -0.577325
vn -0.889708 -0.330370 -0.315080
vn 0.534600 -0.330381 -0.777850
vn 0.303547 -0.187596 -0.934166
vn 0.024747 -0.330386 -0.943521
vn 0.904999 -0.330369 0.268019
vn 0.982248 -0.187587 -0.000000
vn 0.904999 -0.330368 -0.268019
vn 0.024747 -0.330386 0.943521
vn 0.303547 -0.187596 0.934166
vn 0.534600 -0.330382 0.777850
vn -0.889708 -0.330370 0.315080
vn -0.794673 -0.187589 0.577325
vn -0.574625 -0.330382 0.748768
vn -0.268049 -0.943519 -0.194737
vn -0.491142 -0.794645 -0.356817
vn -0.724063 -0.661674 -0.194731
vn 0.102387 -0.943523 -0.315091
vn 0.187605 -0.794657 -0.577343
vn -0.038534 -0.661699 -0.748778
vn 0.331323 -0.943518 -0.000000
vn 0.607084 -0.794638 -0.000000
vn 0.700246 -0.661679 -0.268024
vn 0.102387 -0.943523 0.315090
vn 0.187604 -0.794657 0.577343
vn 0.471323 -0.661690 0.583113
vn -0.268049 -0.943519 0.194736
vn -0.491142 -0.794645 0.356817
vn -0.408967 -0.661692 0.628418
s off
f 1/1/1 2/2/1 3/3/1
f 4/1/2 5/2/2 3/3/2
f 1/1/3 6/2/3 2/3/3
f 1/1/4 7/2/4 6/3/4
f 1/1/5 8/2/5 7/3/5
f 4/1/6 9/2/6 5/3/6
f 10/1/7 11/2/7 12/3/7
f 13/1/8 14/2/8 15/3/8
f 16/1/9 17/2/9 18/3/9
f 19/1/10 20/2/10 21/3/10
f 4/1/11 22/2/11 9/3/11
f 10/1/12 23/2/12 11/3/12
f 13/1/13 24/2/13 14/3/13
f 16/1/14 25/2/14 17/3/14
f 19/1/15 26/2/15 20/3/15
f 27/1/16 28/2/16 29/3/16
f 30/1/17 31/2/17 32/3/17
f 33/1/18 34/2/18 35/3/18
f 36/1/19 37/2/19 38/3/19
f 39/1/20 40/2/20 41/3/20
f 2/1/21 10/2/21 12/3/21
f 2/1/22 12/2/22 3/3/22
f 3/1/23 12/2/23 4/3/23
f 5/1/24 19/2/24 8/3/24
f 5/1/25 8/2/25 3/3/25
f 8/2/26 1/3/26 3/1/26
f 6/1/27 13/2/27 15/3/27
f 6/1/28 15/2/28 2/3/28
f 2/1/29 15/2/29 10/3/29
f 7/1/30 16/2/30 18/3/30
f 7/1/31 18/2/31 6/3/31
f 6/1/32 18/2/32 13/3/32
f 8/1/33 19/2/33 21/3/33
f 8/1/34 21/2/34 7/3/34
f 7/1/35 21/2/35 16/3/35
f 9/1/36 39/2/36 26/3/36
f 9/1/37 26/2/37 5/3/37
f 5/1/38 26/2/38 19/3/38
f 11/1/39 27/2/39 22/3/39
f 11/1/40 22/2/40 12/3/40
f 12/1/41 22/2/41 4/3/41
f 14/1/42 30/2/42 23/3/42
f 14/1/43 23/2/43 15/3/43
f 15/1/44 23/2/44 10/3/44
f 17/1/45 33/2/45 24/3/45
f 17/1/46 24/2/46 18/3/46
f 18/1/47 24/2/47 13/3/47
f 20/1/48 36/2/48 25/3/48
f 20/1/49 25/2/49 21/3/49
f 21/1/50 25/2/50 16/3/50
f 22/1/51 27/2/51 29/3/51
f 22/1/52 29/2/52 9/3/52
f 9/1/53 29/2/53 39/3/53
f 23/1/54 30/2/54 32/3/54
f 23/1/55 32/2/55 11/3/55
f 11/1/56 32/2/56 27/3/56
f 24/1/57 33/2/57 35/3/57
f 24/1/58 35/2/58 14/3/58
f 14/1/59 35/2/59 30/3/59
f 25/1/60 36/2/60 38/3/60
f 25/1/61 38/2/61 17/3/61
f 17/1/62 38/2/62 33/3/62
f 26/1/63 39/2/63 41/3/63
f 26/1/64 41/2/64 20/3/64
f 20/1/65 41/2/65 36/3/65
f 28/1/66 42/2/66 40/3/66
f 28/1/67 40/2/67 29/3/67
f 29/1/68 40/2/68 39/3/68
f 31/1/69 42/2/69 28/3/69
f 31/1/70 28/2/70 32/3/70
f 32/1/71 28/2/71 27/3/71
f 34/1/72 42/2/72 31/3/72
f 34/1/73 31/2/73 35/3/73
f 35/1/74 31/2/74 30/3/74
f 37/1/75 42/2/75 34/3/75
f 37/1/76 34/2/76 38/3/76
f 38/1/77 34/2/77 33/3/77
f 40/1/78 42/2/78 37/3/78
f 40/1/79 37/2/79 41/3/79
f 41/1/80 37/2/80 36/3/80
