# Blender v2.69 (sub 0) OBJ File: ''
# www.blender.org
o Icosphere
v 0.000000 -1.000000 0.000000
v 0.723607 -0.447220 0.525725
v -0.276388 -0.447220 0.850649
v -0.894426 -0.447216 0.000000
v -0.276388 -0.447220 -0.850649
v 0.723607 -0.447220 -0.525725
v 0.276388 0.447220 0.850649
v -0.723607 0.447220 0.525725
v -0.723607 0.447220 -0.525725
v 0.276388 0.447220 -0.850649
v 0.894426 0.447216 0.000000
v 0.000000 1.000000 0.000000
v -0.162456 -0.850654 0.499995
v 0.425323 -0.850654 0.309011
v 0.262869 -0.525738 0.809012
v 0.850648 -0.525736 0.000000
v 0.425323 -0.850654 -0.309011
v -0.525730 -0.850652 0.000000
v -0.688189 -0.525736 0.499997
v -0.162456 -0.850654 -0.499995
v -0.688189 -0.525736 -0.499997
v 0.262869 -0.525738 -0.809012
v 0.951058 0.000000 0.309013
v 0.951058 0.000000 -0.309013
v 0.000000 0.000000 1.000000
v 0.587786 0.000000 0.809017
v -0.951058 0.000000 0.309013
v -0.587786 0.000000 0.809017
v -0.587786 0.000000 -0.809017
v -0.951058 0.000000 -0.309013
v 0.587786 0.000000 -0.809017
v 0.000000 0.000000 -1.000000
v 0.688189 0.525736 0.499997
v -0.262869 0.525738 0.809012
v -0.850648 0.525736 0.000000
v -0.262869 0.525738 -0.809012
v 0.688189 0.525736 -0.499997
v 0.162456 0.850654 0.499995
v 0.525730 0.850652 0.000000
v -0.425323 0.850654 0.309011
v -0.425323 0.850654 -0.309011
v 0.162456 0.850654 -0.499995
vt 0.000000 0.000000
vt 1.000000 0.000000
vt 1.000000 1.000000
vn -0.102381 0.943523 -0.315090
vn -0.700224 0.661699 -0.268032
vn 0.268034 0.943523 -0.194737
vn 0.268034 0.943523 0.194737
vn -0.102381 0.943523 0.315090
vn -0.904989 0.330385 -0.268032
vn -0.024747 0.330386 -0.943521
vn 0.889697 0.330385 -0.315095
vn 0.574602 0.330388 0.748784
vn -0.534576 0.330387 0.777865
vn -0.802609 0.125627 -0.583126
vn 0.306569 0.125629 -0.943522
vn 0.992077 0.125628 0.000000
vn 0.306569 0.125629 0.943522
vn -0.802609 0.125627 0.583126
vn -0.408946 -0.661698 -0.628425
vn 0.471300 -0.661698 -0.583122
vn 0.700224 -0.661699 0.268032
vn -0.038530 -0.661699 0.748779
vn -0.724042 -0.661695 0.194736
vn 0.038531 0.661699 -0.748779
vn -0.187594 0.794658 -0.577345
vn -0.471300 0.661699 -0.583122
vn -0.700224 0.661699 0.268032
vn -0.607060 0.794656 0.000000
vn -0.331305 0.943524 0.000000
vn 0.724042 0.661695 -0.194736
vn 0.491120 0.794657 -0.356821
vn 0.408946 0.661698 -0.628425
vn 0.408946 0.661698 0.628425
vn 0.491120 0.794657 0.356821
vn 0.724042 0.661695 0.194736
vn -0.471300 0.661699 0.583122
vn -0.187594 0.794658 0.577345
vn 0.038531 0.661699 0.748779
vn -0.992077 -0.125628 0.000000
vn -0.982246 0.187598 0.000000
vn -0.904989 0.330385 0.268032
vn -0.306569 -0.125629 -0.943522
vn -0.303531 0.187597 -0.934171
vn -0.534576 0.330386 -0.777865
vn 0.802609 -0.125627 -0.583126
vn 0.794656 0.187595 -0.577348
vn 0.574602 0.330388 -0.748784
vn 0.802609 -0.125627 0.583126
vn 0.794656 0.187595 0.577348
vn 0.889697 0.330385 0.315095
vn -0.306569 -0.125629 0.943522
vn -0.303531 0.187597 0.934171
vn -0.024747 0.330386 0.943521
vn -0.574602 -0.330388 -0.748784
vn -0.794656 -0.187595 -0.577348
vn -0.889697 -0.330385 -0.315095
vn 0.534576 -0.330386 -0.777865
vn 0.303531 -0.187597 -0.934171
vn 0.024747 -0.330386 -0.943521
vn 0.904989 -0.330385 0.268032
vn 0.982246 -0.187598 0.000000
vn 0.904989 -0.330385 -0.268032
vn 0.024747 -0.330386 0.943521
vn 0.303531 -0.187597 0.934171
vn 0.534576 -0.330386 0.777865
vn -0.889697 -0.330385 0.315095
vn -0.794656 -0.187595 0.577348
vn -0.574602 -0.330388 0.748784
vn -0.268034 -0.943523 -0.194737
vn -0.491119 -0.794657 -0.356821
vn -0.724042 -0.661695 -0.194736
vn 0.102381 -0.943523 -0.315090
vn 0.187594 -0.794658 -0.577345
vn -0.038530 -0.661699 -0.748779
vn 0.331305 -0.943524 0.000000
vn 0.607060 -0.794656 0.000000
vn 0.700224 -0.661699 -0.268032
vn 0.102381 -0.943523 0.315090
vn 0.187594 -0.794658 0.577345
vn 0.471300 -0.661699 0.583122
vn -0.268034 -0.943523 0.194737
vn -0.491119 -0.794657 0.356821
vn -0.408946 -0.661699 0.628425
s off
f 1/1/1 13/2/1 14/3/1
f 2/1/2 16/2/2 14/3/2
f 1/1/3 18/2/3 13/3/3
f 1/1/4 20/2/4 18/3/4
f 1/1/5 17/2/5 20/3/5
f 2/1/6 23/2/6 16/3/6
f 3/1/7 25/2/7 15/3/7
f 4/1/8 27/2/8 19/3/8
f 5/1/9 29/2/9 21/3/9
f 6/1/10 31/2/10 22/3/10
f 2/1/11 26/2/11 23/3/11
f 3/1/12 28/2/12 25/3/12
f 4/1/13 30/2/13 27/3/13
f 5/1/14 32/2/14 29/3/14
f 6/1/15 24/2/15 31/3/15
f 7/1/16 38/2/16 33/3/16
f 8/1/17 40/2/17 34/3/17
f 9/1/18 41/2/18 35/3/18
f 10/1/19 42/2/19 36/3/19
f 11/1/20 39/2/20 37/3/20
f 13/1/21 3/2/21 15/3/21
f 13/1/22 15/2/22 14/3/22
f 14/1/23 15/2/23 2/3/23
f 16/1/24 6/2/24 17/3/24
f 16/1/25 17/2/25 14/3/25
f 14/1/26 17/2/26 1/3/26
f 18/1/27 4/2/27 19/3/27
f 18/1/28 19/2/28 13/3/28
f 13/1/29 19/2/29 3/3/29
f 20/1/30 5/2/30 21/3/30
f 20/1/31 21/2/31 18/3/31
f 18/1/32 21/2/32 4/3/32
f 17/1/33 6/2/33 22/3/33
f 17/1/34 22/2/34 20/3/34
f 20/1/35 22/2/35 5/3/35
f 23/1/36 11/2/36 24/3/36
f 23/1/37 24/2/37 16/3/37
f 16/1/38 24/2/38 6/3/38
f 25/1/39 7/2/39 26/3/39
f 25/1/40 26/2/40 15/3/40
f 15/1/41 26/2/41 2/3/41
f 27/1/42 8/2/42 28/3/42
f 27/1/43 28/2/43 19/3/43
f 19/1/44 28/2/44 3/3/44
f 29/1/45 9/2/45 30/3/45
f 29/1/46 30/2/46 21/3/46
f 21/1/47 30/2/47 4/3/47
f 31/1/48 10/2/48 32/3/48
f 31/1/49 32/2/49 22/3/49
f 22/1/50 32/2/50 5/3/50
f 26/1/51 7/2/51 33/3/51
f 26/1/52 33/2/52 23/3/52
f 23/1/53 33/2/53 11/3/53
f 28/1/54 8/2/54 34/3/54
f 28/1/55 34/2/55 25/3/55
f 25/1/56 34/2/56 7/3/56
f 30/1/57 9/2/57 35/3/57
f 30/1/58 35/2/58 27/3/58
f 27/1/59 35/2/59 8/3/59
f 32/1/60 10/2/60 36/3/60
f 32/1/61 36/2/61 29/3/61
f 29/1/62 36/2/62 9/3/62
f 24/1/63 11/2/63 37/3/63
f 24/1/64 37/2/64 31/3/64
f 31/1/65 37/2/65 10/3/65
f 38/1/66 12/2/66 39/3/66
f 38/1/67 39/2/67 33/3/67
f 33/1/68 39/2/68 11/3/68
f 40/1/69 12/2/69 38/3/69
f 40/1/70 38/2/70 34/3/70
f 34/1/71 38/2/71 7/3/71
f 41/1/72 12/2/72 40/3/72
f 41/1/73 40/2/73 35/3/73
f 35/1/74 40/2/74 8/3/74
f 42/1/75 12/2/75 41/3/75
f 42/1/76 41/2/76 36/3/76
f 36/1/77 41/2/77 9/3/77
f 39/1/78 12/2/78 42/3/78
f 39/1/79 42/2/79 37/3/79
f 37/1/80 42/2/80 10/3/80
