# Blender v2.69 (sub 0) OBJ File: ''
# www.blender.org
o prism2_cube28.001
v -0.184672 -0.398000 0.398000
v 0.000000 -0.499888 0.499888
v 0.000000 0.499888 0.499888
v -0.184672 0.398000 0.398000
v 0.184672 -0.398000 0.398000
v 0.184672 -0.398000 -0.398000
v 0.184672 0.398000 -0.398000
v 0.184672 0.398000 0.398000
v -0.184672 -0.398000 -0.398000
v 0.000000 -0.499888 -0.499888
v 0.000000 0.499888 -0.499888
v -0.184672 0.398000 -0.398000
vn -0.483077 -0.000000 0.875578
vn 1.000000 0.000000 0.000000
vn -0.483077 -0.875578 -0.000000
vn 0.483077 0.875578 0.000000
vn -0.483077 0.000000 -0.875578
vn -1.000000 -0.000000 0.000000
vn 0.483077 -0.000000 0.875578
vn 0.483077 -0.875578 -0.000000
vn -0.483077 0.875578 0.000000
vn 0.483077 0.000000 -0.875578
s off
f 1//1 2//1 3//1
f 1//1 3//1 4//1
f 5//2 6//2 7//2
f 5//2 7//2 8//2
f 1//3 9//3 2//3
f 9//3 10//3 2//3
f 7//4 11//4 3//4
f 7//4 3//4 8//4
f 12//5 11//5 9//5
f 11//5 10//5 9//5
f 1//6 4//6 12//6
f 1//6 12//6 9//6
f 8//7 3//7 5//7
f 3//7 2//7 5//7
f 5//8 2//8 6//8
f 2//8 10//8 6//8
f 3//9 11//9 12//9
f 3//9 12//9 4//9
f 6//10 10//10 11//10
f 6//10 11//10 7//10
