# Blender v2.69 (sub 0) OBJ File: ''
# www.blender.org
o prism1_cube7.001
v 0.160000 -0.301248 0.160000
v 0.160000 0.325312 0.160000
v -0.160000 0.325312 0.160000
v -0.160000 -0.301248 0.160000
v 0.160000 -0.301248 -0.160000
v 0.160000 0.325312 -0.160000
v -0.160000 -0.301248 -0.160000
v -0.160000 0.325312 -0.160000
v 0.000000 0.482325 0.000000
v 0.000000 -0.515719 -0.000000
vn 0.000000 -0.000000 1.000000
vn 1.000000 -0.000000 0.000000
vn 0.000000 0.000000 -1.000000
vn -1.000000 0.000000 0.000000
vn 0.000000 0.713737 0.700413
vn 0.700413 0.713738 0.000000
vn 0.000000 0.713738 -0.700413
vn -0.700413 0.713738 0.000000
vn 0.000000 -0.597957 0.801528
vn -0.801528 -0.597957 -0.000000
vn 0.000000 -0.597957 -0.801528
vn 0.801528 -0.597957 0.000000
s off
f 1//1 2//1 3//1
f 4//1 1//1 3//1
f 1//2 5//2 6//2
f 1//2 6//2 2//2
f 6//3 5//3 7//3
f 7//3 8//3 6//3
f 3//4 8//4 7//4
f 7//4 4//4 3//4
f 2//5 9//5 3//5
f 6//6 9//6 2//6
f 8//7 9//7 6//7
f 3//8 9//8 8//8
f 10//9 1//9 4//9
f 4//10 7//10 10//10
f 5//11 10//11 7//11
f 1//12 10//12 5//12
