# Blender v2.69 (sub 0) OBJ File: ''
# www.blender.org
o prism3_cube21.002
v -0.239000 -0.500944 0.095175
v 0.239000 -0.500944 0.382825
v 0.239000 0.500944 0.382825
v -0.239000 0.500944 0.095175
v 0.239000 -0.500944 -0.095175
v 0.239000 0.500944 -0.095175
v -0.239000 -0.500944 -0.382825
v -0.239000 0.500944 -0.382825
vn -0.515616 -0.000000 0.856820
vn 1.000000 0.000000 0.000000
vn -0.000000 -1.000000 0.000000
vn 0.000000 1.000000 0.000000
vn 0.515616 0.000000 -0.856820
vn -1.000000 -0.000000 0.000000
s off
f 1//1 2//1 3//1
f 1//1 3//1 4//1
f 2//2 5//2 6//2
f 2//2 6//2 3//2
f 1//3 7//3 5//3
f 1//3 5//3 2//3
f 3//4 6//4 4//4
f 6//4 8//4 4//4
f 8//5 6//5 5//5
f 5//5 7//5 8//5
f 4//6 8//6 7//6
f 7//6 1//6 4//6
